<svg width="14" height="14" viewBox="0 0 14 14" fill="none" xmlns="http://www.w3.org/2000/svg">
<g clip-path="url(#clip0_36_6)">
<path d="M5.27995 6.64999C5.18354 6.84962 5.12966 7.06711 5.12174 7.28866C5.11383 7.51021 5.15203 7.73098 5.23395 7.93699C5.34902 8.21746 5.54533 8.45711 5.79766 8.62515C6.04998 8.79319 6.34679 8.88193 6.64995 8.87999C6.85416 8.87999 7.05002 8.96111 7.19442 9.10552C7.33882 9.24992 7.41995 9.44577 7.41995 9.64999V13.12M0.569946 9.26999H2.41995C2.62552 9.26465 2.83009 9.30053 3.02157 9.37553C3.21305 9.45053 3.38758 9.56312 3.53484 9.70665C3.68211 9.85019 3.79913 10.0218 3.87901 10.2113C3.9589 10.4008 4.00002 10.6043 3.99995 10.81V13.26M13.2599 1.96999L12.2599 1.62999C12.1897 1.60611 12.1135 1.6059 12.0431 1.62937C11.9727 1.65284 11.9118 1.69872 11.8699 1.75999L11.1399 2.88999L7.13995 0.889988C6.82381 0.703676 6.4704 0.58954 6.10501 0.555747C5.73961 0.521954 5.37127 0.56934 5.02633 0.694513C4.68138 0.819687 4.36837 1.01955 4.10968 1.27981C3.85099 1.54007 3.65303 1.85429 3.52995 2.19999C3.49602 2.28967 3.48145 2.38551 3.48718 2.48122C3.49292 2.57693 3.51882 2.67035 3.56321 2.75534C3.60759 2.84033 3.66945 2.91497 3.74472 2.97437C3.81999 3.03377 3.90697 3.07658 3.99995 3.09999L6.60995 3.93999L6.86995 4.02999L7.35995 5.70999C7.37569 5.76849 7.40593 5.82207 7.44788 5.86577C7.48984 5.90947 7.54214 5.94188 7.59995 5.95999L8.77995 6.33999C8.84019 6.35961 8.90446 6.36344 8.96661 6.3511C9.02875 6.33876 9.08669 6.31067 9.13486 6.26952C9.18304 6.22837 9.21984 6.17554 9.24174 6.11609C9.26364 6.05664 9.26991 5.99256 9.25995 5.92999L8.99995 4.67999H9.16995L11.7199 5.50999C11.8871 5.56759 12.0702 5.55683 12.2294 5.48003C12.3886 5.40324 12.511 5.26663 12.5699 5.09999L13.4699 2.32999C13.4799 2.25519 13.4646 2.17921 13.4266 2.11404C13.3886 2.04886 13.3299 1.99819 13.2599 1.96999Z" stroke="white" stroke-linecap="round" stroke-linejoin="round"/>
<path d="M10.5 8.49998C10.4999 9.33869 10.2889 10.1639 9.88634 10.8997C9.48376 11.6354 8.90256 12.2581 8.19625 12.7104C7.48994 13.1627 6.68121 13.43 5.8445 13.4878C5.00779 13.5456 4.16998 13.3919 3.4082 13.0411C2.64642 12.6902 1.98515 12.1533 1.48524 11.4799C0.985338 10.8064 0.662869 10.0181 0.547517 9.18733C0.432166 8.3566 0.527638 7.51019 0.825147 6.72603C1.12266 5.94187 1.61264 5.24514 2.25 4.69998" stroke="#FFA32B" stroke-linecap="round" stroke-linejoin="round"/>
</g>
<defs>
<clipPath id="clip0_36_6">
<rect width="14" height="14" fill="white"/>
</clipPath>
</defs>
</svg>
